<svg xmlns="http://www.w3.org/2000/svg" viewBox="0 0 48 48"><path d="M44.4 6.5c-.1-.2-.3-.6-.6-1-.4-.6-.6-.8-1.2-1.2-.4-.3-.9-.5-1.1-.6-.1-.1-7.6-.1-17.5-.1-13.7 0-17.3 0-17.6.1-.4.1-1.1.6-1.6 1-.4.3-1 1.3-1.1 1.8-.2.7-.2 33.9 0 34.4.4 1 1.7 2.3 2.6 2.6.4.2 35 .2 35.5 0 .9-.3 2.3-1.7 2.6-2.6.1-.3.1-3.5.1-17.2 0-11 0-16.9-.1-17.2zM21.7 36.2c-1.6 1.1-3.8 1.7-6.4 1.7-2.1 0-4.1-.3-5.9-1v-4.8s-.1 0-.1-.1h.1v.1c1.9 1.2 3.7 1.7 5.6 1.7 2.3 0 3.5-.6 3.5-1.9 0-.9-1-1.6-2.9-2.2-2.4-.8-4.1-1.6-5-2.5-.9-.9-1.3-2.2-1.3-3.8 0-1.9.8-3.4 2.3-4.5 1.5-1.1 3.6-1.6 6.1-1.6 1.8 0 3.5.3 5.2.8v4.5c-1.5-.9-3.2-1.3-5-1.3-.9 0-1.6.2-2.2.5-.6.3-.8.7-.8 1.3 0 .9.8 1.6 2.5 2.2 1.8.6 3.1 1.1 4 1.6.9.5 1.6 1.1 2 1.9.4.8.7 1.7.7 2.7 0 2-.8 3.6-2.4 4.7zm18.4-23.4c-.9-.3-1.6-.5-2.3-.5-1.9 0-2.9 1.1-2.9 3.2v2.2h4.4V22h-4.4v15.2h-5.7V22h-3.3v-4.2h3.3v-2.5c0-2.2.7-4 2.2-5.3s3.3-2 5.7-2c1.2 0 2.2.1 3 .4v4.4z"/></svg>